<svg width="20" height="20" viewBox="0 0 20 20" fill="none" xmlns="http://www.w3.org/2000/svg">
<g clip-path="url(#clip0_23_3141)">
<path d="M17.4525 14.7723C16.6574 15.7373 15.6334 16.488 14.4739 16.9558C13.3144 17.4236 12.0562 17.5937 10.814 17.4507C9.57188 17.3076 8.38532 16.8558 7.36251 16.1366C6.3397 15.4175 5.51319 14.4537 4.95833 13.3332H12.0833C12.4149 13.3332 12.7328 13.2015 12.9672 12.9671C13.2016 12.7326 13.3333 12.4147 13.3333 12.0832C13.3333 11.7517 13.2016 11.4337 12.9672 11.1993C12.7328 10.9649 12.4149 10.8332 12.0833 10.8332H4.21583C4.15025 10.2796 4.15025 9.72013 4.21583 9.16651H12.0833C12.4149 9.16651 12.7328 9.03481 12.9672 8.80039C13.2016 8.56597 13.3333 8.24803 13.3333 7.91651C13.3333 7.58499 13.2016 7.26704 12.9672 7.03262C12.7328 6.7982 12.4149 6.66651 12.0833 6.66651H4.95833C5.51319 5.54601 6.3397 4.58223 7.36251 3.86303C8.38532 3.14384 9.57188 2.69211 10.814 2.54903C12.0562 2.40595 13.3144 2.57607 14.4739 3.04389C15.6334 3.51171 16.6574 4.26234 17.4525 5.22734C17.6636 5.48305 17.9676 5.64444 18.2976 5.67601C18.6277 5.70758 18.9568 5.60674 19.2125 5.39567C19.4682 5.1846 19.6296 4.8806 19.6612 4.55054C19.6927 4.22047 19.5919 3.89139 19.3808 3.63567C18.2553 2.27026 16.7873 1.22827 15.1269 0.616287C13.4666 0.00429907 11.6735 -0.155737 9.93106 0.152545C8.18859 0.460827 6.55926 1.22637 5.2097 2.37087C3.86013 3.51538 2.83875 4.99779 2.25 6.66651H1.25C0.918479 6.66651 0.600537 6.7982 0.366116 7.03262C0.131696 7.26704 0 7.58499 0 7.91651C0 8.24803 0.131696 8.56597 0.366116 8.80039C0.600537 9.03481 0.918479 9.16651 1.25 9.16651H1.70917C1.68583 9.44234 1.66667 9.71817 1.66667 9.99984C1.66667 10.2815 1.68583 10.5573 1.70917 10.8332H1.25C0.918479 10.8332 0.600537 10.9649 0.366116 11.1993C0.131696 11.4337 0 11.7517 0 12.0832C0 12.4147 0.131696 12.7326 0.366116 12.9671C0.600537 13.2015 0.918479 13.3332 1.25 13.3332H2.25C2.83875 15.0019 3.86013 16.4843 5.2097 17.6288C6.55926 18.7733 8.18859 19.5389 9.93106 19.8471C11.6735 20.1554 13.4666 19.9954 15.1269 19.3834C16.7873 18.7714 18.2553 17.7294 19.3808 16.364C19.5919 16.1083 19.6927 15.7792 19.6612 15.4491C19.6296 15.1191 19.4682 14.8151 19.2125 14.604C19.0859 14.4995 18.9399 14.4209 18.7829 14.3728C18.626 14.3247 18.4611 14.308 18.2976 14.3237C17.9676 14.3552 17.6636 14.5166 17.4525 14.7723Z" fill="#321F47"/>
</g>
<defs>
<clipPath id="clip0_23_3141">
<rect width="20" height="20" fill="white"/>
</clipPath>
</defs>
</svg>
