<svg width="20" height="20" viewBox="0 0 20 20" fill="none" xmlns="http://www.w3.org/2000/svg">
<g clip-path="url(#clip0_28_3289)">
<path d="M19.1666 0.823183C18.8714 0.528758 18.5147 0.30341 18.1221 0.163352C17.7294 0.0232934 17.3106 -0.0279927 16.8957 0.0131833C14.6474 0.230683 7.07741 1.17152 4.09991 4.14902C2.70176 5.55707 1.85194 7.41781 1.7033 9.39653C1.55466 11.3752 2.11697 13.3421 3.28908 14.9432L0.365746 17.8657C0.13125 18.1002 -0.000488281 18.4182 -0.000488281 18.7499C-0.000488281 19.0815 0.13125 19.3995 0.365746 19.634C0.600241 19.8685 0.918285 20.0003 1.24991 20.0003C1.58154 20.0003 1.89958 19.8685 2.13408 19.634L5.05658 16.7107C6.6577 17.8828 8.62452 18.4451 10.6032 18.2965C12.582 18.1478 14.4427 17.298 15.8507 15.8999C18.8699 12.8807 19.7807 5.33318 19.9874 3.09068C20.0265 2.67557 19.9732 2.25694 19.8313 1.86489C19.6893 1.47283 19.4623 1.11708 19.1666 0.823183ZM14.0832 14.1315C13.1456 15.0638 11.9187 15.6494 10.6042 15.792C9.28967 15.9347 7.96573 15.6259 6.84991 14.9165L13.8007 7.96652C14.0352 7.73202 14.167 7.41398 14.167 7.08235C14.167 6.75072 14.0352 6.43268 13.8007 6.19818C13.5663 5.96369 13.2482 5.83195 12.9166 5.83195C12.585 5.83195 12.2669 5.96369 12.0324 6.19818L5.08325 13.1499C4.37383 12.034 4.06508 10.7101 4.20774 9.39557C4.3504 8.08106 4.93598 6.85417 5.86825 5.91652C7.76825 4.01652 13.1257 2.88985 17.1374 2.49985C17.1859 2.49463 17.235 2.50038 17.281 2.51668C17.3271 2.53298 17.3688 2.55941 17.4032 2.59402C17.4387 2.62808 17.4659 2.66985 17.4827 2.71609C17.4994 2.76233 17.5053 2.8118 17.4999 2.86068C17.1291 6.85402 16.0132 12.2015 14.0832 14.1315Z" fill="#321F47"/>
</g>
<defs>
<clipPath id="clip0_28_3289">
<rect width="20" height="20" fill="white"/>
</clipPath>
</defs>
</svg>
