<svg width="20" height="20" viewBox="0 0 20 20" fill="none" xmlns="http://www.w3.org/2000/svg">
<path d="M18.9601 6.67435C18.095 5.60228 16.7903 4.98032 15.4127 4.98321H13.7207L13.7954 4.54485C14.1 2.75907 12.8993 1.0645 11.1136 0.759893C10.9171 0.726377 10.7179 0.71083 10.5186 0.713487C9.26645 0.706963 8.1177 1.40728 7.54984 2.52333L6.29457 4.98321H4.56609C2.04547 4.98599 0.00273437 7.02868 0 9.54935V13.7004C0.00273437 16.221 2.04547 18.2637 4.56609 18.2665H14.5352C16.6898 18.2586 18.5486 16.7522 19.0025 14.6459L19.88 10.4949C20.1679 9.14782 19.8296 7.74278 18.9601 6.67435ZM2.49059 13.7003V9.54935C2.49059 8.4031 3.4198 7.47384 4.56609 7.47384H5.81141V15.7758H4.56609C3.41984 15.7758 2.49059 14.8466 2.49059 13.7003ZM17.4433 9.97939L16.565 14.1304C16.359 15.0877 15.5143 15.7724 14.5351 15.7759H8.30199V6.52821L9.76812 3.65489C9.92352 3.36403 10.2324 3.1886 10.5618 3.20411C10.9983 3.20439 11.3519 3.55849 11.3516 3.99497C11.3516 4.03903 11.3479 4.08302 11.3405 4.12646L10.7702 7.47384H15.4127C16.5589 7.47372 17.4882 8.40286 17.4884 9.54911C17.4884 9.69372 17.4733 9.8379 17.4433 9.97939Z" fill="#321F47"/>
</svg>
